<svg width="28" height="72" viewBox="0 0 28 72" fill="none" xmlns="http://www.w3.org/2000/svg">
<path d="M26.2158 39.5152C27.2707 38.7216 27.9104 37.4736 27.9104 36.1022V33.3416C27.9104 33.338 27.9109 33.3345 27.9109 33.3309V24.0508C27.9109 23.1808 27.8199 22.3864 27.6201 21.5377C27.6167 21.5237 27.6106 21.5112 27.6069 21.4974C26.6772 17.6197 23.6809 14.5384 19.8527 13.4887V9.89587H20.3611C21.7087 9.89587 22.8051 8.79923 22.8051 7.45105V2.9809C22.8049 1.63272 21.7087 0.536072 20.361 0.536072H7.63888C6.29133 0.536072 5.19495 1.63272 5.19495 2.9809V7.45105C5.19495 8.79909 6.29119 9.89587 7.63888 9.89587H8.14731V13.4886C4.3192 14.5383 1.32285 17.6196 0.393122 21.4973C0.389237 21.511 0.38327 21.5235 0.379939 21.5378C0.235069 22.1535 0.137239 22.8495 0.104768 23.4769C0.104213 23.4873 0.103936 23.4979 0.103381 23.5083C0.0945004 23.6889 0.0890869 33.3308 0.0890869 33.3308C0.0890869 33.3344 0.0896438 33.3379 0.0896438 33.3415V36.1021C0.0896438 37.4736 0.729349 38.7216 1.78424 39.515C0.686054 40.3117 0 41.6052 0 43.001V47.0917C0 47.6667 0.465973 48.1329 1.04074 48.1329C1.6155 48.1329 2.08147 47.6667 2.08147 47.0917V45.6735H6.68473C7.25949 45.6735 7.72546 45.2073 7.72546 44.6323C7.72546 44.0574 7.25949 43.5912 6.68473 43.5912H2.08147V43.0013C2.08147 42.0794 2.66179 41.244 3.52546 40.9225C4.10536 40.7065 4.49502 40.1497 4.49502 39.5368V39.5156C4.49502 38.9073 4.12756 38.3688 3.55849 38.1435C2.71577 37.8098 2.17112 37.0086 2.17112 36.1022V34.3719H16.6596C17.2343 34.3719 17.7003 33.9058 17.7003 33.3308C17.7003 32.7558 17.2343 32.2897 16.6596 32.2897H2.17112V22.8174H25.8287V32.2897H21.51C20.9352 32.2897 20.4692 32.7558 20.4692 33.3308C20.4692 33.9058 20.9352 34.3719 21.51 34.3719H25.8287V36.1022C25.8287 37.0086 25.2841 37.8098 24.4412 38.1435C23.8724 38.3688 23.5048 38.9073 23.5048 39.5156V39.5367C23.5048 40.1496 23.8945 40.7063 24.4745 40.9223C25.3382 41.2438 25.9184 42.0792 25.9184 43.0011V43.5911H13.3223C12.7475 43.5911 12.2815 44.0572 12.2815 44.6322C12.2815 45.2072 12.7475 45.6733 13.3223 45.6733H25.9184V49.3649H21.5101C20.9353 49.3649 20.4694 49.831 20.4694 50.406C20.4694 50.9809 20.9353 51.4471 21.5101 51.4471H25.9184V53.7959H24.1901C23.6153 53.7959 23.1493 54.262 23.1493 54.837C23.1493 55.4119 23.6153 55.8781 24.1901 55.8781H25.9184V60.9124H7.69147C7.1167 60.9124 6.65073 61.3785 6.65073 61.9535C6.65073 62.5285 7.1167 62.9946 7.69147 62.9946H25.9185V66.2918C25.9185 68.0411 24.4959 69.4643 22.7472 69.4643H5.25281C3.50409 69.4643 2.08147 68.0411 2.08147 66.2918V57.2207H6.75855C7.33331 57.2207 7.79929 56.7546 7.79929 56.1796C7.79929 55.6046 7.33331 55.1385 6.75855 55.1385H2.08147V51.9271C2.08147 51.3521 1.6155 50.886 1.04074 50.886C0.465973 50.886 0 51.3521 0 51.9271V66.2916C0 69.1892 2.35637 71.5464 5.25281 71.5464H22.7472C25.6436 71.5464 28 69.1892 28 66.2916V43.0013C28 41.6053 27.3138 40.3118 26.2158 39.5152ZM7.27656 7.45105V2.9809C7.27656 2.781 7.43919 2.61831 7.63901 2.61831H20.3611C20.5609 2.61831 20.7236 2.781 20.7236 2.9809V7.45105C20.7236 7.65094 20.5609 7.81364 20.3611 7.81364H7.63901C7.43919 7.81364 7.27656 7.65094 7.27656 7.45105ZM10.2289 9.89587H17.7712V13.1315H10.2289V9.89587ZM2.81624 20.7352C4.13173 17.4831 7.31958 15.182 11.0365 15.182H16.9635C20.6804 15.182 23.8683 17.4831 25.1838 20.7352H2.81624Z" fill="#007B9B"/>
<path d="M14.5722 49.3195H5.92263C5.36185 49.3195 4.90722 49.7719 4.90722 50.3299C4.90722 50.8878 5.36185 51.3402 5.92263 51.3402H14.5722C15.133 51.3402 15.5876 50.8878 15.5876 50.3299C15.5876 49.7719 15.133 49.3195 14.5722 49.3195Z" fill="#007B9B"/>
<path d="M12.4124 56.1031C12.4124 56.661 12.866 57.1134 13.4254 57.1134H18.9044C19.4639 57.1134 19.9175 56.661 19.9175 56.1031C19.9175 55.5451 19.4639 55.0928 18.9044 55.0928H13.4254C12.866 55.0928 12.4124 55.5451 12.4124 56.1031Z" fill="#007B9B"/>
</svg>
