<svg width="74" height="76" viewBox="0 0 74 76" fill="none" xmlns="http://www.w3.org/2000/svg">
<path d="M64.6388 36.1243C61.2273 35.9727 58.5739 34.5323 57.2093 31.2724C55.9205 28.0883 56.2238 25.0559 58.4981 22.4025C60.6966 19.8249 63.5775 18.6877 66.989 19.7491C68.8085 20.3556 70.4763 21.2653 71.9925 19.1426C72.3716 18.6119 73.0539 18.4603 73.6604 18.991C74.2669 19.5975 73.9636 20.204 73.5087 20.583C71.8409 21.9476 72.1441 23.388 72.7506 25.2833C74.5701 30.8175 70.4005 36.2001 64.6388 36.1243ZM70.9312 27.9367C71.007 24.7526 68.2778 21.796 65.0937 21.6444C61.758 21.4169 58.8014 24.2978 58.7255 27.7093C58.6497 31.1208 61.1515 33.7742 64.4872 33.9258C67.9745 34.0774 70.8554 31.3482 70.9312 27.9367Z" fill="#007B9B"/>
<path d="M40.9857 16.3376C39.6211 13.9116 38.1807 11.5615 38.6356 8.60485C39.3937 3.60131 44.1698 0.493044 49.325 1.93346C51.1445 2.38832 52.6606 3.07062 54.0252 1.25115C54.4043 0.796282 55.0866 0.417228 55.6173 1.09953C56.148 1.63021 55.9964 2.31251 55.4657 2.76737C54.2527 3.90454 53.7978 4.96591 54.5559 6.70957C56.0722 10.3485 55.314 13.6842 52.2816 16.2618C49.2491 18.8394 45.9135 19.0668 42.502 17.0199C41.9713 16.7166 41.3648 16.4892 40.8341 16.186L40.9857 16.3376ZM46.7474 3.67712C43.4875 3.75293 40.7583 6.55794 40.7583 9.81782C40.7583 13.1535 43.7907 16.186 47.1264 16.0343C50.5379 15.8827 53.1913 12.9261 53.0397 9.43877C52.8123 6.17888 50.0831 3.60131 46.7474 3.67712Z" fill="#007B9B"/>
<path d="M27.7945 28.0883C28.3252 29.2255 28.9316 30.2868 29.3865 31.424C31.1301 35.2146 29.993 39.46 26.5815 41.8102C23.3216 44.0845 19.0762 43.7813 16.1195 41.1279C13.3145 38.5503 12.6322 34.0016 14.5275 30.7417C16.4228 27.4818 20.5924 25.8898 24.383 26.9512C25.5959 27.3302 26.5057 28.3916 27.8703 28.1641L27.7945 28.0883ZM28.0977 34.9113C28.0219 31.5756 24.9136 28.6948 21.5779 28.8464C18.3181 28.9981 15.7405 31.8031 15.8163 35.1388C15.8921 38.6261 18.7729 41.3553 22.2603 41.2037C25.4443 40.9762 28.1735 38.0954 28.0977 34.9113Z" fill="#007B9B"/>
<path d="M27.9462 28.24C24.4589 21.417 26.5057 15.5795 32.7981 14.1391C35.9821 13.4568 38.3323 15.2004 40.9857 16.3376L40.8341 16.186C41.1373 16.8683 41.3647 17.5506 41.668 18.2329C43.5633 22.3267 42.881 26.1931 39.7727 28.7706C36.8919 31.1966 32.8739 31.3482 29.3108 29.1497C28.7801 28.8465 28.2494 28.4674 27.7945 28.0883L27.9462 28.24ZM34.5418 16.2618C31.2061 16.186 28.2494 19.0668 28.1736 22.4025C28.0978 25.5866 30.827 28.4674 34.0111 28.619C37.4226 28.7706 40.3792 26.1172 40.5308 22.7057C40.6824 19.2942 37.8774 16.3376 34.5418 16.2618Z" fill="#007B9B"/>
<path d="M39.621 44.5393C44.2455 44.4635 48.0361 48.1783 48.0361 52.9544C48.0361 57.6547 44.3213 61.4453 39.621 61.3694C35.1482 61.3694 31.4334 57.6547 31.2818 53.1818C31.206 48.709 35.0724 44.6152 39.621 44.5393ZM45.9134 52.9544C45.9134 49.5429 42.881 46.7379 39.4694 46.8137C36.1338 46.9653 33.632 49.6187 33.632 53.0302C33.632 56.3659 36.2854 59.1709 39.5452 59.1709C42.9567 59.2467 45.9892 56.2901 45.9134 52.9544Z" fill="#007B9B"/>
<path d="M44.0181 40.4456C44.0181 35.5936 47.5812 32.1063 52.3573 32.1063C57.0576 32.1063 60.4691 35.5178 60.5449 40.2181C60.6207 44.9942 57.0576 48.709 52.3573 48.7848C47.657 48.8606 44.0181 45.2217 44.0181 40.4456ZM58.3464 40.3697C58.3464 37.034 55.693 34.3807 52.3573 34.3048C48.9458 34.229 45.9891 37.1099 46.0649 40.5214C46.1407 43.7812 48.8699 46.5105 52.1298 46.5863C55.6172 46.5863 58.4222 43.8571 58.3464 40.3697Z" fill="#007B9B"/>
<path d="M14.8308 43.4022C14.3759 43.9329 14.0727 44.4636 13.6178 44.8426C9.97886 48.4816 6.41576 52.1963 2.70101 55.7594C2.09452 56.3659 1.26059 57.6547 0.275042 56.4417C-0.483071 55.532 0.502457 54.8497 1.10895 54.2432C4.74789 50.6043 8.31101 46.8895 11.9499 43.3264C12.5564 42.7199 13.0871 41.886 14.1485 42.4167C14.4517 42.5683 14.6034 43.0232 14.8308 43.4022Z" fill="#007B9B"/>
<path d="M18.8487 75.0913C18.6213 74.9397 18.1664 74.8639 18.0906 74.6364C18.0148 74.1816 17.939 73.4993 18.1664 73.2718C22.2602 69.0264 26.4298 64.8568 30.6752 60.6872C30.9027 60.4597 31.6608 60.3839 32.0398 60.5355C32.5705 60.763 32.6463 61.4453 32.3431 61.8243C28.0219 66.2214 23.7006 70.5426 19.3794 74.9397C19.2278 75.0155 19.0761 75.0155 18.8487 75.0913Z" fill="#007B9B"/>
</svg>
