<svg width="69" height="59" viewBox="0 0 69 59" fill="none" xmlns="http://www.w3.org/2000/svg">
<path d="M34.7149 58.8199C31.3285 58.8199 27.8633 58.8199 24.4768 58.8199C23.2168 58.8199 21.4054 59.056 21.5629 57.1674C21.7992 54.0197 19.5941 53.3902 17.5465 52.1311C7.0721 45.8357 1.008 36.7074 0.0629432 24.3527C-0.0158113 22.7789 -0.33082 21.205 1.79555 20.4968C3.37064 20.0247 3.13439 18.4508 3.52816 17.1917C6.0483 9.4799 14.0025 4.83707 21.7992 6.72568C23.0592 7.04045 25.3431 6.96177 24.8706 8.85038C24.3981 10.8177 22.6655 9.16513 21.5629 8.92906C14.7113 7.5126 7.93838 11.1324 5.81201 17.5852C5.49699 18.6082 4.55195 19.946 6.3633 20.4968C7.78088 20.8903 8.33216 20.0247 8.96219 18.7656C11.7186 13.3358 16.0501 10.8964 20.4604 12.2341C21.4054 12.5489 22.9017 12.6276 22.508 14.044C22.193 15.1457 20.9329 14.6736 20.1453 14.5162C16.9164 13.9654 14.16 14.7523 12.1912 17.5065C10.9311 19.2377 10.6161 20.6542 13.6087 20.5755C14.3963 20.5755 15.1838 20.5755 15.9714 20.5755C22.7442 20.5755 22.7443 20.5755 25.1856 14.2801C28.6508 5.15184 37.3138 -0.513995 47.0006 0.0368499C56.6087 0.509003 64.0116 7.27653 67.3193 16.5622C69.6819 23.251 69.6032 29.3103 66.768 35.6057C63.4603 43.0815 58.2625 48.7473 51.0958 52.6819C49.9145 53.3114 47.9457 53.5475 48.1819 55.4361C48.5757 59.1347 46.2918 59.056 43.7717 58.9773C40.779 58.7412 37.7076 58.8199 34.7149 58.8199ZM34.7149 23.015C25.1856 23.015 15.5776 23.1724 6.04827 22.9363C2.58307 22.8576 2.11057 24.274 2.5831 27.107C4.07943 34.9762 7.70213 41.5863 13.845 46.78C18.0977 50.3211 22.6655 52.6819 28.4933 52.1311C32.5098 51.7376 36.605 51.7376 40.6215 52.1311C47.3944 52.8393 52.5135 49.7703 57.0812 45.4422C62.4365 40.3273 65.5867 34.0319 66.9255 26.6348C67.3981 23.7232 66.453 22.9363 63.7754 23.015C54.0885 23.015 44.4017 23.015 34.7149 23.015ZM45.7406 2.16155C36.8413 2.24024 28.8083 8.69299 26.682 17.0344C25.9732 20.0247 26.9182 20.6542 29.6746 20.5755C32.116 20.4968 32.116 18.7656 32.6673 17.1917C34.6362 11.6833 39.9127 7.98476 45.6618 7.98476C51.4109 7.90607 56.6087 11.5259 58.735 17.0344C58.9713 17.6639 59.1288 18.2934 59.3651 18.923C60.2314 21.4411 62.4365 20.5755 64.0903 20.4181C66.2955 20.182 65.1142 18.3721 64.9567 17.3491C63.2241 8.77168 54.7186 2.08286 45.7406 2.16155ZM45.9768 10.4242C41.5666 10.3455 37.7076 12.5489 35.7387 16.4048C35.1087 17.5852 33.6124 19.1591 35.2662 20.182C36.9201 21.205 38.1801 20.2607 39.2827 18.3721C41.5666 14.3588 46.0556 13.1784 49.6783 15.2244C51.1746 16.09 52.2772 17.3491 52.986 19.0017C53.616 20.6542 55.0336 20.6542 56.2149 20.2607C57.8687 19.6312 56.9237 18.2934 56.5299 17.3491C54.7973 13.2571 50.6233 10.5029 45.9768 10.4242ZM34.2424 56.5378C37.4713 56.5378 40.779 56.5378 44.0079 56.5378C44.638 56.5378 45.4255 56.6165 45.583 55.7509C45.7405 54.6492 44.7955 54.4918 44.0867 54.4918C37.9439 54.4918 31.801 54.4918 25.6582 54.4918C24.8706 54.4918 23.9255 54.4918 23.9255 55.5935C23.9255 56.6952 24.9494 56.6165 25.6582 56.6165C28.4933 56.5378 31.4073 56.5378 34.2424 56.5378ZM45.8193 20.7329C46.9218 19.6312 49.757 21.992 50.072 19.3951C50.3083 17.6639 47.8669 16.6409 45.9768 16.6409C43.9292 16.6409 41.5666 17.5065 41.6453 19.5525C41.6453 21.4411 44.1654 20.182 45.8193 20.7329Z" fill="#007B9B"/>
<path d="M41 45.9324C40.7651 47.1925 39.8255 47.1925 38.9641 46.6737C35.1272 44.3017 31.7602 41.411 29.3328 37.7048C28.9413 37.186 28.7847 36.4447 29.4894 36.0741C29.8026 35.9259 30.6639 36 30.8989 36.2965C33.6395 39.7803 36.9282 42.671 40.6085 45.2653C40.7651 45.4877 40.8434 45.7101 41 45.9324Z" fill="#007B9B"/>
</svg>
