<svg width="77" height="75" viewBox="0 0 77 75" fill="none" xmlns="http://www.w3.org/2000/svg">
<path d="M33.0614 56.2325C32.9827 56.1543 32.8252 56.1543 32.7465 56.0761C19.6007 52.9496 16.0584 41.4596 27.7086 31.4548C31.6445 28.0937 35.8952 24.1856 41.7203 26.9213C48.6475 30.2041 54.5513 34.9721 55.6533 43.101C56.3618 48.1035 53.2131 51.699 48.8836 54.0439C47.0731 54.9818 45.1052 55.6071 42.1926 56.7796C51.7962 56.3106 60.3764 55.6853 68.563 52.7151C70.7671 51.9335 73.0499 51.0737 74.152 48.7288C74.5456 47.9472 75.0179 47.3219 75.9625 47.6345C76.8284 47.869 77.0645 48.7288 76.9858 49.5104C76.7496 54.7473 76.6709 59.9061 76.2774 65.0649C76.1199 67.5661 73.9158 68.6604 71.9479 69.6765C65.9653 72.6467 59.4318 73.5847 52.9769 74.21C39.2014 75.5387 25.5045 75.3824 11.9651 72.2559C10.5481 71.9432 9.20995 71.5524 7.79304 71.0834C0.865889 68.6604 0 67.4098 0 60.0624C0 56.5451 0 53.0278 0 49.5104C0 48.8851 -4.78577e-06 48.1816 0.708454 47.7908C1.33819 47.4782 1.73179 47.7908 1.96794 48.2598C5.03793 53.4186 10.7056 53.4967 15.5861 54.8255C17.9476 55.4508 20.4666 55.6853 22.9855 55.9198C26.3704 56.2325 29.7552 56.4669 33.1401 56.7014C33.1401 56.5451 33.0614 56.3888 33.0614 56.2325ZM2.20408 53.4186C2.20408 55.1382 2.20408 56.8577 2.20408 58.4992C2.20408 66.8626 2.67638 67.4879 10.7843 69.7547C11.1779 69.8328 11.5715 69.9892 11.9651 70.0673C24.8747 73.1938 37.9419 73.1938 51.0877 72.2559C57.6213 71.7869 64.1548 70.8489 70.2161 68.1132C73.6009 66.55 76.7496 57.6394 74.2307 54.2002C72.4202 51.699 69.9799 55.7635 67.5397 55.6071C67.3035 55.6071 67.0674 55.7635 66.8312 55.8416C45.2626 60.6096 24.0089 60.6877 2.20408 53.4186ZM39.2801 54.2002C42.1926 53.9657 45.8924 53.3404 49.1985 51.1518C51.8749 49.3541 53.7641 46.6965 53.3705 43.6482C52.5046 36.4572 47.2306 32.4709 41.3267 29.188C36.8398 26.6868 33.455 29.657 30.385 32.1582C26.0555 35.7537 21.4899 39.5837 23.3791 46.2276C24.796 51.23 30.936 54.2784 39.2801 54.2002Z" fill="#007B9B"/>
<path d="M56.0945 26.3561C54.0208 26.6703 52.665 28.2409 51.0698 29.3403C50.5115 29.733 49.7937 29.89 49.2355 29.2618C48.6772 28.6335 49.2355 28.0838 49.6342 27.6126C53.4625 22.7437 59.843 21.5657 65.107 24.8641C68.058 26.6703 70.6102 28.9477 72.6041 31.7748C77.1502 38.2929 75.0765 45.3607 67.6592 48.4234C65.3462 49.3658 62.8738 50.0726 60.3216 49.994C59.524 49.994 58.567 49.9155 58.4872 48.9731C58.4074 47.9522 59.3645 47.8737 60.1621 47.7952C62.5548 47.5596 64.8677 47.1669 67.1009 46.2245C72.8433 43.7115 74.3587 38.4499 70.8494 33.3454C68.7758 30.4398 66.2236 28.0053 62.8738 26.4347C60.6406 26.2776 58.4074 25.3352 56.0945 26.3561Z" fill="#007B9B"/>
<path d="M13.6294 26.5069C9.24397 28.0667 6.37352 31.2644 4.30042 35.164C2.14759 39.2976 3.90176 43.6652 8.44663 45.9269C10.8387 47.0968 13.4699 47.5648 16.1012 47.7987C16.8985 47.8767 17.8553 47.8767 17.6958 48.9686C17.6161 49.7486 16.8985 49.8265 16.1809 49.9045C11.9549 50.6065 4.61936 47.3308 2.30705 43.5872C0.0744861 39.9215 0.712377 35.164 4.14096 30.9524C5.81539 28.9246 7.72901 27.1308 9.96158 25.649C15.8619 21.5934 20.965 22.2173 25.9085 27.3648C26.4666 27.9887 27.5829 28.6127 26.6261 29.6266C25.9085 30.3285 25.1909 29.7046 24.553 29.2366C23.1975 28.2227 21.9218 26.9748 20.1676 26.6629C18.0148 25.337 15.8619 26.3509 13.6294 26.5069Z" fill="#007B9B"/>
<path d="M36 15.0921C36.1635 13.6636 36.1635 12.1558 37.1446 10.9655C39.5972 8.02921 40.66 5.09294 38.2891 1.68054C37.8804 1.12503 37.8804 0.410802 38.7797 0.093369C39.5154 -0.224064 40.0059 0.331451 40.4965 0.807601C42.5403 2.95028 42.5403 7.63242 40.2512 10.7274C38.3709 13.1875 37.8803 15.6476 39.3519 18.4251C39.7607 19.2187 40.66 20.171 39.4337 20.8059C38.0439 21.5201 37.6351 20.0917 37.0628 19.2981C36.1635 18.0284 36.2453 16.5205 36 15.0921Z" fill="#007B9B"/>
<path d="M13.6621 26.5669C15.9171 26.408 18.2556 25.3749 20.5105 26.5669C21.0952 27.2822 21.6798 27.9974 22.1809 28.7126C22.682 29.3484 23.4337 29.9047 22.682 30.6994C21.9303 31.4941 21.1787 30.9378 20.5105 30.461C19.4248 29.5868 19.1743 29.0305 17.838 30.9378C15.7501 33.9577 16.4182 29.5868 14.9984 29.5073C14.8314 29.5868 14.4973 29.7458 14.1632 29.9842C13.3281 30.5405 12.5764 31.8915 11.4071 30.6994C10.2379 29.5073 11.9083 28.951 12.4094 28.1563C12.827 27.6 13.2445 27.1232 13.6621 26.5669Z" fill="#007B9B"/>
<path d="M56.4648 26.4798C58.6378 25.4414 60.8885 26.3999 63.0615 26.4798C63.2167 26.7194 63.4496 26.8792 63.4496 27.1188C63.5272 28.4767 66.0882 29.3554 64.4585 30.7931C63.2167 31.9114 62.5959 29.3554 61.1989 29.3554C60.2676 29.595 60.6557 34.6273 58.405 30.1541C57.7842 28.956 57.2409 29.595 56.62 29.9944C55.9215 30.4736 55.3007 31.6718 54.3694 30.5535C53.3605 29.3554 54.6798 28.7163 55.2231 27.9176C55.6887 27.5182 56.0768 27.0389 56.4648 26.4798Z" fill="#007B9B"/>
<path d="M56.9144 6.57282C57.1751 8.96008 56.8275 10.1537 56.0455 11.1086C54.8291 12.6205 54.3077 14.1325 55.2635 15.8831C55.698 16.5993 56.1324 17.4746 55.0028 17.8725C53.7864 18.35 53.265 17.395 52.7437 16.5197C51.5272 14.4508 51.8748 12.3818 53.265 10.5516C54.2208 9.27838 54.7422 8.00518 54.2208 6.49326C53.9602 5.61793 52.7437 4.34472 54.6553 4.02642C56.0455 3.78769 56.3931 5.22005 56.7406 6.17495C57.0013 6.6524 57.0013 7.20943 56.9144 6.57282Z" fill="#007B9B"/>
<path d="M24 8.26582C23.7272 9.13875 23.4543 10.3291 22.9086 11.2814C22.1583 12.7098 21.6809 14.0589 22.363 15.7254C22.704 16.519 23.1815 17.63 22.0219 17.9474C21.067 18.2648 20.5895 17.0745 20.3849 16.2809C19.8392 14.3763 19.771 12.3924 20.8624 10.5672C21.6127 9.37682 22.2948 8.18646 21.7491 6.59932C21.4763 5.72639 20.4531 4.45667 21.8855 4.05989C23.1815 3.6631 23.3861 5.32961 23.7272 6.36125C23.8636 6.91675 23.8636 7.47225 24 8.26582Z" fill="#007B9B"/>
<path d="M33.32 35C32.5562 34.8445 31.8687 34.689 32.0214 34.0669C32.4798 32.5117 33.4728 31.4231 35.0005 31.0343C35.4588 30.8788 36.0699 31.2676 35.9935 31.8896C35.7643 33.5226 34.313 34.1447 33.32 35Z" fill="#007B9B"/>
</svg>
