<svg width="52" height="66" viewBox="0 0 52 66" fill="none" xmlns="http://www.w3.org/2000/svg">
<path d="M34.8049 18.8207C34.0934 18.8207 33.5159 19.3982 33.5159 20.1098C33.5159 20.8214 34.0934 21.3989 34.8049 21.3989C35.5165 21.3989 36.094 20.8214 36.094 20.1098C36.094 19.3982 35.5165 18.8207 34.8049 18.8207Z" fill="#007B9B"/>
<path d="M40.0828 37.8992L41.1051 17.7344C41.2211 15.5254 39.4571 13.6644 37.2435 13.6644H16.8819L15.4456 6.20199C15.3626 5.77092 15.0661 5.41179 14.6585 5.24872L1.76806 0.0924787C1.10715 -0.171779 0.35692 0.149584 0.0925338 0.810744C-0.171853 1.47177 0.14964 2.22201 0.81067 2.48639L13.0472 7.38109L14.2566 13.6646H11.741C9.52924 13.6644 7.76348 15.5238 7.87937 17.7334L10.1856 62.3361C10.294 64.3906 11.9907 66 14.0484 66H37.3829C45.2048 65.9999 51.5624 59.6604 51.5624 51.8203C51.5624 44.8571 46.5815 39.1593 40.0828 37.8992ZM48.9114 50.5314H40.4948L46.4463 44.5799C47.8221 46.2948 48.6713 48.3448 48.9114 50.5314ZM38.672 40.2916C40.8458 40.5316 42.9149 41.3955 44.622 42.7583L38.672 48.7084V40.2916ZM10.4539 17.5995C10.4152 16.8612 11.0013 16.2426 11.7409 16.2426H14.7526L17.4513 30.2632C16.1299 30.4263 14.765 30.1222 13.6051 29.3491C12.8105 28.8201 11.9256 28.4328 11.0022 28.2039L10.4539 17.5995ZM14.0484 63.422C13.3621 63.422 12.7962 62.8854 12.7603 62.2016L12.69 60.8439H26.4473C27.2647 61.834 28.1821 62.6861 29.2235 63.422H14.0484ZM34.2707 53.1095L28.3191 59.0611C28.245 58.9683 28.1718 58.8751 28.1007 58.7804C26.8431 57.1072 26.0786 55.1674 25.8531 53.1095H34.2707ZM25.8542 50.5314C26.0943 48.3449 26.9433 46.295 28.3192 44.5799L34.2707 50.5314H25.8542ZM36.0938 63.349C33.9073 63.1089 31.8573 62.2598 30.1424 60.884L36.0938 54.9325V63.349ZM36.0938 48.7083L30.1424 42.7568C31.8572 41.381 33.9073 40.5319 36.0938 40.2917V48.7083ZM37.5144 37.6426C37.4704 37.6422 37.4267 37.6409 37.3828 37.6409C29.5607 37.6409 23.2032 43.9805 23.2032 51.8204C23.2032 54.095 23.7342 56.2851 24.7496 58.2658H12.5567L11.1444 30.9543C11.5047 31.0994 11.8516 31.279 12.1758 31.4948C14.9594 33.3499 18.5565 33.3499 21.34 31.4948C23.255 30.2184 25.7298 30.2185 27.6445 31.4948C29.0365 32.4225 30.6316 32.8862 32.2268 32.8862C33.8217 32.8862 35.4169 32.4224 36.8082 31.495C37.1368 31.2763 37.4885 31.0949 37.8538 30.9489L37.5144 37.6426ZM38.5303 17.6017L37.9929 28.2012C37.0657 28.4298 36.1767 28.8182 35.3787 29.3495C33.4638 30.6258 30.989 30.6258 29.0741 29.3495C26.2905 27.4943 22.6935 27.4942 19.9099 29.3495C19.9072 29.3513 19.9044 29.353 19.9015 29.3548L17.3778 16.2425H37.2435C37.9824 16.2425 38.5693 16.8598 38.5303 17.6017ZM38.672 63.349V54.9325L44.6234 60.884C42.9085 62.2598 40.8583 63.1089 38.672 63.349ZM46.4463 59.0609L40.4948 53.0965H48.9114C48.6713 55.283 47.8222 57.3458 46.4463 59.0609Z" fill="#007B9B"/>
<path d="M29.6487 18.8207H24.4924C23.7805 18.8207 23.2034 19.3979 23.2034 20.1098C23.2034 20.8217 23.7805 21.3989 24.4924 21.3989H29.6487C30.3605 21.3989 30.9377 20.8217 30.9377 20.1098C30.9377 19.3979 30.3605 18.8207 29.6487 18.8207Z" fill="#007B9B"/>
</svg>
