<svg width="70" height="66" viewBox="0 0 70 66" fill="none" xmlns="http://www.w3.org/2000/svg">
<path d="M33.3808 6.2993C37.3737 6.68322 41.2897 7.14393 45.2825 7.45107C52.27 7.98856 59.3342 8.52606 66.3216 8.90998C68.3948 9.06355 69.3162 9.52425 69.1627 11.8278C69.0091 14.2081 67.8573 14.5153 65.9377 14.2849C56.4164 13.2099 46.895 12.2117 37.2969 11.2903C32.5362 10.8296 30.9237 13.2099 32.6898 17.817C33.1505 18.9688 33.0737 20.0438 32.613 21.1956C30.9237 25.2652 32.613 27.7223 37.0665 27.7223C46.1272 27.7223 55.2645 27.7991 64.3252 27.6455C67.5501 27.5687 68.318 28.8741 67.9341 31.7919C66.3984 43.9239 60.5627 53.1381 49.7361 58.9738C48.5075 59.6648 46.9718 60.0488 47.2021 61.8916C47.4325 64.5791 45.9736 65.1166 43.6701 65.0398C37.1433 64.963 30.6166 65.0398 24.0899 64.963C22.8613 64.963 20.9417 65.1166 21.0952 63.4273C21.4024 59.972 18.8685 59.3577 16.7185 58.0524C6.73647 51.9863 1.4383 42.9257 0.0561704 31.408C-0.250969 28.5669 0.670455 27.3384 3.58828 27.5687C4.97041 27.7223 6.42933 27.6455 7.81146 27.5687C10.2686 27.4919 14.1078 28.7205 11.2668 23.7295C10.7293 22.7313 11.2668 21.5027 12.1114 20.5813C12.8025 19.8134 12.8793 19.0456 12.1882 18.201C10.8061 16.5117 10.7293 14.7456 12.1114 12.9796C12.9561 11.9814 12.5721 11.2135 11.9578 10.2921C11.3436 9.37068 10.7293 8.29569 10.5757 7.2207C9.73109 1.0779 9.96144 0.847554 16.2578 0.770769C32.613 0.540414 49.045 0.233279 65.4002 0.0797086C66.9359 0.0797086 68.8555 -0.611351 69.1627 2.07612C69.4698 4.91717 68.0877 5.53144 65.5538 5.45466C56.186 5.2243 46.895 5.14751 37.5273 4.99394C36.2219 4.91716 34.763 4.61003 33.3808 6.2993ZM34.3023 29.9491C24.7042 29.9491 15.1828 30.0258 5.5847 29.9491C3.12758 29.9491 2.20616 30.4098 2.59009 33.2508C3.58829 40.0847 6.42932 45.9203 11.1132 50.8346C15.8739 55.8256 21.2488 59.1273 28.6202 58.4363C33.4576 57.9756 38.2951 58.3595 43.1325 58.3595C44.5147 58.3595 45.9736 58.3595 47.2789 57.7452C57.1842 52.831 63.2502 44.9221 65.2466 34.0187C65.7841 31.024 65.0163 29.9491 61.7913 30.0258C52.7307 30.1026 43.5165 29.9491 34.3023 29.9491ZM33.7648 62.7362C36.6826 62.7362 39.6772 62.7362 42.595 62.7362C43.2861 62.7362 44.2843 62.9666 44.4379 61.8916C44.5915 60.8934 43.7468 60.663 42.979 60.663C36.9897 60.663 31.0005 60.663 24.9345 60.663C24.1666 60.663 23.322 60.8934 23.4756 61.9684C23.5524 62.813 24.397 62.7362 24.9345 62.813C27.9291 62.813 30.8469 62.7362 33.7648 62.7362ZM30.6934 12.0582C30.463 11.2135 30.3095 10.7528 29.6952 10.676C29.0809 10.5992 28.7738 10.9832 28.697 11.5207C28.5434 13.6706 25.7024 15.5135 28.2363 18.0474C29.1577 18.9688 28.697 20.5813 27.8523 21.5795C25.7024 24.1134 29.0041 25.2652 29.2345 27.1848C29.2345 27.2616 30.0023 27.3384 30.2327 27.1848C30.7702 26.8777 30.6166 26.2634 30.2327 25.8795C29.2345 24.7277 28.4666 22.9616 29.388 22.0402C32.5362 18.892 26.2398 14.6689 30.6934 12.0582ZM19.5595 9.21712C19.7899 11.5207 19.7131 13.0564 18.5614 14.4385C16.8721 16.4349 20.0203 17.4331 19.7131 19.1992C19.6363 19.6599 19.7131 20.3509 19.406 20.6581C17.3328 22.6545 18.4846 24.4205 19.6363 26.3402C20.0203 27.0312 20.1738 27.9526 21.0952 27.4919C22.1702 26.9544 21.4024 26.2634 21.0185 25.7259C19.7899 24.1134 20.5578 22.5777 20.8649 20.8116C21.4024 17.5099 20.1738 14.0546 21.172 10.676C21.172 10.4457 20.6345 10.0617 19.5595 9.21712ZM15.106 9.44746C14.8757 11.1367 15.6435 12.9796 14.031 14.4385C13.2632 15.1295 13.4168 15.9742 14.031 16.8188C15.4132 18.5081 15.4132 20.1206 14.1078 21.9634C12.3418 24.4205 15.5667 25.4955 15.7971 27.4152C16.181 27.3384 16.5649 27.4151 16.8721 27.1848C17.4096 26.8009 17.0257 26.2634 16.7185 25.8795C15.1828 24.0366 16.4114 22.2706 16.4881 20.4277C16.6417 17.2795 15.5667 14.0546 16.7953 10.8296C16.8721 10.5992 16.181 9.44746 15.106 9.44746ZM25.0881 10.4457C24.7809 10.5992 24.5506 10.676 24.397 10.8296C20.8649 14.3617 25.9327 19.2759 22.5542 22.9616C22.4006 23.1152 22.9381 24.0366 23.2452 24.5741C23.6292 25.342 24.0131 26.1866 24.397 26.9544C24.7042 27.4919 25.2416 27.5687 25.7023 27.3384C26.2398 27.0312 26.1631 26.4169 25.7791 26.033C24.0131 24.1134 24.0131 22.1938 25.7791 20.2741C26.3934 19.5831 26.2398 18.892 25.7023 18.201C24.0131 16.3581 24.1666 14.5921 25.7023 12.7492C26.1631 12.2117 26.3166 11.5974 25.9327 11.0599C25.7791 10.8296 25.3952 10.676 25.0881 10.4457Z" fill="#007B9B"/>
<path d="M22.0935 52.9845C21.9399 54.1363 21.1721 54.3667 20.481 53.906C16.565 51.4488 13.1864 48.3774 10.8061 44.3846C10.5757 44.0775 10.7293 43.3096 10.9597 43.0025C11.4972 42.3882 12.1882 42.8489 12.5722 43.3096C15.1061 46.6882 18.1007 49.606 21.556 52.0631C21.7096 52.3702 21.8631 52.7542 22.0935 52.9845Z" fill="#007B9B"/>
</svg>
