<svg width="69" height="69" viewBox="0 0 69 69" fill="none" xmlns="http://www.w3.org/2000/svg">
<path d="M50.2396 55.6452C57.6039 55.6452 63.5945 49.6546 63.5945 42.2903C63.5945 34.9266 57.6039 28.9355 50.2396 28.9355C42.8759 28.9355 36.8848 34.9266 36.8848 42.2903C36.8848 49.6546 42.8759 55.6452 50.2396 55.6452ZM50.2396 31.1613C56.3764 31.1613 61.3687 36.1541 61.3687 42.2903C61.3687 48.4271 56.3764 53.4194 50.2396 53.4194C44.1035 53.4194 39.1106 48.4271 39.1106 42.2903C39.1106 36.1541 44.1035 31.1613 50.2396 31.1613Z" fill="#007B9B"/>
<path d="M68.0863 29.1648L60.2373 14.4156L62.4594 9.21514C63.1155 7.68273 63.4474 6.06011 63.4474 4.39292V0H36.7948V4.39292C36.7948 6.06011 37.1272 7.68273 37.7833 9.21514L40.0065 14.4145L32.1586 29.1637C31.5588 30.288 31.2422 31.5553 31.2422 32.8306V44.5161H0L1.64681 57.7243C2.07247 61.1265 4.66225 63.7974 7.92116 64.4136V69H27.9106V64.4136C29.1458 64.18 30.2808 63.6469 31.2422 62.8948V63.4355C31.2422 66.5041 33.7333 69 36.7948 69H63.4474C66.5095 69 69 66.5041 69 63.4355V32.8306C69 31.5553 68.6839 30.288 68.0863 29.1648ZM41.9033 15.5806H58.3394L60.1158 18.9194H40.1264L41.9033 15.5806ZM61.3012 21.1452L62.486 23.371H37.7578L38.9426 21.1452H61.3012ZM39.8243 8.33917C39.2881 7.08498 39.0158 5.75688 39.0158 4.39292V2.22581H61.2263V4.39292C61.2263 5.75688 60.9547 7.08389 60.4178 8.33808L58.2738 13.3548H41.9689L39.8243 8.33917ZM33.4632 32.8306C33.4632 31.9204 33.6888 31.0146 34.1177 30.212L36.5741 25.5968H63.6708L66.1272 30.212C66.5539 31.0146 66.779 31.9204 66.779 32.8306V60.0968H33.4844C33.833 59.3637 34.0787 58.5687 34.1844 57.7243L35.8323 44.5161H33.4632V32.8306ZM10.1422 66.7742V64.5484H25.6896V66.7742H10.1422ZM26.4704 62.3226H9.36192C6.56771 62.3226 4.19863 60.2272 3.85105 57.4482L3.07184 51.1936H25.6896V48.9677H2.7942L2.51657 46.7419H33.3157L33.0381 48.9677H27.9106V51.1936H32.7605L31.9807 57.4482C31.6342 60.2272 29.2646 62.3226 26.4704 62.3226ZM63.4474 66.7742H36.7948C34.9582 66.7742 33.4632 65.2766 33.4632 63.4355V62.3226H66.779V63.4355C66.779 65.2766 65.2845 66.7742 63.4474 66.7742Z" fill="#007B9B"/>
</svg>
