<svg width="77" height="69" viewBox="0 0 77 69" fill="none" xmlns="http://www.w3.org/2000/svg">
<path d="M72.0323 51.6255C74.8626 51.0526 77 48.5649 77 45.5893V13.5536C77 10.5508 74.8204 8.05082 71.9515 7.50868C71.3964 3.27996 67.7501 0 63.3387 0H58.371C56.5217 0 54.8079 0.580339 53.397 1.56113C51.944 0.553232 50.2201 0 48.4355 0H43.4677C41.6185 0 39.9046 0.580339 38.4938 1.56113C37.0407 0.553232 35.3169 0 33.5323 0H28.5645C26.7153 0 25.0014 0.580339 23.5906 1.56113C22.1375 0.553232 20.4137 0 18.629 0H13.6613C9.24994 0 5.60361 3.27996 5.04847 7.50868C2.1796 8.05082 0 10.5508 0 13.5536V45.5893C0 48.9863 2.78566 51.75 6.20968 51.75H54.6452C54.6452 52.6729 54.9184 53.528 55.3642 54.2673C53.5585 54.5211 52.1613 56.0502 52.1613 57.9107C52.1613 58.3444 52.2507 58.756 52.3898 59.1429H49.6774V60.375C49.6774 65.1298 53.5783 69 58.371 69H68.3064C73.0991 69 77 65.1298 77 60.375V59.1429H74.2876C74.4267 58.756 74.5161 58.3444 74.5161 57.9107C74.5161 56.0502 73.119 54.5211 71.3132 54.2673C71.759 53.528 72.0323 52.6729 72.0323 51.75V51.6255ZM71.7528 49.1452C71.4933 48.2901 71.0549 47.5003 70.4699 46.8214H74.2864C73.879 47.9562 72.9364 48.8286 71.7528 49.1452ZM69.5484 51.75C69.5484 53.1091 68.4344 54.2143 67.0645 54.2143H59.6129C58.243 54.2143 57.129 53.1091 57.129 51.75C57.129 50.3909 58.243 49.2857 59.6129 49.2857C61.9279 49.2857 64.0193 48.0597 65.1507 46.1327L67.642 47.6149C68.8169 48.3172 69.5484 49.5974 69.5484 50.9565V51.75ZM19.8648 2.59736C20.5217 2.73166 21.1514 2.97193 21.7326 3.3083C20.5714 4.77579 19.871 6.61907 19.871 8.625V12.4101C17.1611 17.3634 12.6007 20.4597 7.45161 20.8897V18.4107C14.4698 17.6997 19.8089 11.024 19.8648 2.59736ZM49.6712 2.59736C50.3282 2.73166 50.9579 2.97193 51.5391 3.3083C50.3779 4.77579 49.6774 6.61907 49.6774 8.625V12.404C46.9675 17.3695 42.432 20.4622 37.2581 20.891V18.4107C44.2762 17.6997 49.6153 11.024 49.6712 2.59736ZM37.7449 35.6582C37.4319 34.9226 37.2581 34.1156 37.2581 33.2679V33.221C41.6533 33.0251 45.8883 31.8028 49.6774 29.6182V32.3105C45.9342 34.2881 41.9277 35.4118 37.7449 35.6582ZM49.6774 26.7092C45.9591 29.1537 41.703 30.5387 37.2581 30.7567V23.3664C42.1227 23.0263 46.5018 20.6803 49.6774 16.8212V26.7092ZM52.1613 13.0164C52.1936 12.9535 52.2296 12.8944 52.2606 12.8303L52.1613 12.7822V11.1226C58.8292 11.4454 64.947 14.3656 69.5484 19.4309V23.4206C65.409 17.5925 59.1136 13.9861 52.1613 13.6004V13.0164ZM69.5484 15.9144C64.726 11.4749 58.6802 8.94413 52.1613 8.65827V8.625C52.1613 7.78098 52.3352 6.97639 52.6456 6.2445C58.7994 6.60798 64.6154 8.88129 69.5484 12.8673V15.9144ZM34.7742 18.248C31.1639 15.4708 26.8718 13.8665 22.3548 13.6152V11.1361C26.7997 11.3542 31.0546 12.7391 34.7742 15.1837V18.248ZM7.45161 23.3664C12.2939 23.0238 16.6879 20.6741 19.871 16.8175V20.4117C16.4134 23.6399 12.0642 25.5238 7.45161 25.8134V23.3664ZM7.45161 28.2789C11.9673 28.0276 16.2619 26.4245 19.871 23.6485V26.7092C16.1514 29.1525 11.8965 30.5387 7.45161 30.7567V28.2789ZM19.871 29.6182V32.3092C16.1265 34.2881 12.12 35.4118 7.93845 35.6582C7.62548 34.9226 7.45161 34.1156 7.45161 33.2679V33.221C11.8468 33.0251 16.0818 31.8016 19.871 29.6182ZM20.0473 35.0002C20.323 36.3334 20.9142 37.5508 21.7326 38.5845C20.7925 39.1279 19.7269 39.4286 18.629 39.4286H13.6613C12.1536 39.4286 10.7887 38.8716 9.71194 37.982C13.3024 37.5865 16.7649 36.5946 20.0473 35.0002ZM22.3548 33.2679V30.9773C25.1566 31.7708 27.2754 35.1949 27.3176 39.3029C24.4897 38.7287 22.3548 36.241 22.3548 33.2679ZM22.3548 28.4662V25.9588C28.0168 26.687 32.2903 32.3388 32.2903 39.4286H29.8065C29.8065 33.8531 26.56 29.2388 22.3548 28.4662ZM34.768 39.2943C34.7121 30.8689 29.373 24.1931 22.3548 23.4822V16.0795C26.9674 16.369 31.3142 18.2554 34.7742 21.4836V33.2679C34.7742 35.2738 35.4746 37.1171 36.6371 38.5845C36.0546 38.9209 35.4262 39.1612 34.768 39.2943ZM49.8538 35.0002C50.1295 36.3334 50.7206 37.552 51.5391 38.5845C50.5989 39.1279 49.5334 39.4286 48.4355 39.4286H43.4677C41.96 39.4286 40.5951 38.8716 39.5184 37.982C43.1088 37.5865 46.5726 36.5946 49.8538 35.0002ZM52.1613 33.2679V30.9773C54.9631 31.7708 57.0818 35.1949 57.1241 39.3029C54.2962 38.7287 52.1613 36.241 52.1613 33.2679ZM52.1613 28.4662V25.9588C57.8233 26.687 62.0968 32.3388 62.0968 39.4286H59.6129C59.6129 33.8531 56.3665 29.2388 52.1613 28.4662ZM64.5757 39.3041C64.5223 30.8738 59.182 24.1931 52.1613 23.4822V21.0142C60.2922 21.6796 66.4932 28.8112 66.995 38.2223C66.2846 38.7398 65.4699 39.1242 64.5757 39.3041ZM69.1621 35.3366C67.5675 26.1017 60.676 19.1721 52.1613 18.5499V16.0634C59.5545 16.528 66.1182 21.1152 69.5484 28.2888V33.2679C69.5484 33.9973 69.3981 34.6873 69.1621 35.3366ZM63.3387 2.46429C66.7627 2.46429 69.5484 5.22798 69.5484 8.625V9.74748C65.0116 6.49709 59.8601 4.50841 54.4253 3.90836C55.5009 3.01998 56.8657 2.46429 58.371 2.46429H63.3387ZM47.1936 2.46429C47.1936 9.55404 42.92 15.2059 37.2581 15.9341V8.625C37.2581 5.22798 40.0437 2.46429 43.4677 2.46429H47.1936ZM33.5323 2.46429C34.6314 2.46429 35.6957 2.76493 36.6371 3.3083C35.4746 4.77579 34.7742 6.61907 34.7742 8.625V12.2746C30.985 10.0912 26.75 8.86773 22.3548 8.67182V8.625C22.3548 5.22798 25.1405 2.46429 28.5645 2.46429H33.5323ZM13.6613 2.46429H17.3871C17.3871 9.55404 13.1136 15.2059 7.45161 15.9341V8.625C7.45161 5.22798 10.2373 2.46429 13.6613 2.46429ZM4.96774 10.0839V33.2679C4.96774 38.0227 8.86866 41.8929 13.6613 41.8929H18.629C20.4137 41.8929 22.1375 41.3396 23.5906 40.3317C25.0014 41.3125 26.7153 41.8929 28.5645 41.8929H33.5323C35.3169 41.8929 37.0407 41.3396 38.4938 40.3317C39.9046 41.3125 41.6185 41.8929 43.4677 41.8929H48.4355C50.2201 41.8929 51.944 41.3396 53.397 40.3317C54.8079 41.3125 56.5217 41.8929 58.371 41.8929H63.3387C68.1313 41.8929 72.0323 38.0227 72.0323 33.2679V10.0839C73.4741 10.594 74.5161 11.9493 74.5161 13.5536V44.3571H66.995L63.8939 42.5126L63.3387 44.1575C63.3151 44.2265 63.2803 44.2894 63.253 44.3571H2.48387V13.5536C2.48387 11.9493 3.52585 10.594 4.96774 10.0839ZM6.20968 49.2857C4.59268 49.2857 3.22655 48.2519 2.71239 46.8214H59.6129C57.7823 46.8214 56.1976 47.8195 55.3357 49.2857H6.20968ZM68.3064 66.5357H58.371C55.3717 66.5357 52.863 64.4152 52.2867 61.6071H55.8871H70.7903H74.3907C73.8144 64.4152 71.3057 66.5357 68.3064 66.5357ZM72.0323 57.9107C72.0323 58.5909 71.4759 59.1429 70.7903 59.1429H55.8871C55.2015 59.1429 54.6452 58.5909 54.6452 57.9107C54.6452 57.2306 55.2015 56.6786 55.8871 56.6786H59.6129H67.0645H70.7903C71.4759 56.6786 72.0323 57.2306 72.0323 57.9107Z" fill="#007A9B"/>
</svg>
