<svg width="72" height="68" viewBox="0 0 72 68" fill="none" xmlns="http://www.w3.org/2000/svg">
<path d="M71.9367 34.129C71.9367 36.1947 71.79 38.3341 71.9367 40.3997C72.597 49.9902 68.0484 56.851 60.1985 61.2774C44.2784 70.2039 27.9916 70.2776 11.9982 61.2774C4.00153 56.7772 -0.473698 49.7688 0.0398513 40.0309C0.259944 35.752 0.259944 31.3995 0.0398513 27.1206C-0.400334 18.3417 3.63471 12.071 10.5309 7.27579C24.6169 -2.38842 47.4331 -2.4622 61.519 7.27579C68.4152 11.9972 72.5237 18.3417 71.9367 27.1206C71.79 29.4814 71.9367 31.7683 71.9367 34.129ZM50.6611 4.61998C42.371 1.44775 33.9341 1.74284 24.9103 3.43962C28.5785 5.6528 28.5785 4.54621 32.3201 4.54621C36.5018 4.54621 40.8303 4.10357 44.792 4.76752C46.9929 5.13639 48.7537 5.72657 50.7345 4.54621C50.6611 6.24298 50.2943 7.71843 48.2401 7.93975C47.213 8.08729 46.2593 7.93975 45.3789 7.49711C41.4172 5.3577 36.942 9.71029 33.0537 6.39052C29.6056 10.5218 25.864 4.98884 22.2692 6.83316C21.9024 7.05448 21.3888 6.31675 21.5356 5.80034C22.3426 3.43962 20.5818 4.69375 20.0683 4.91507C13.759 7.27579 8.18328 10.6693 4.58844 16.6449C0.333317 23.7271 2.24078 33.0962 8.47673 37.3013C12.4384 23.3582 24.7636 21.809 36.135 18.4892C35.0346 16.8662 33.8607 16.1285 32.1734 17.4564C30.1192 19.0794 28.2117 17.8253 26.1575 17.6777C22.1958 17.4564 18.1608 18.2679 14.1258 17.3826C13.6856 17.3089 13.0987 18.0466 12.5851 18.2679C11.4113 18.7843 10.2375 18.7843 9.06365 18.0466C8.40338 17.6777 7.74309 17.1613 8.10991 16.2761C8.40336 15.6121 9.13701 15.9072 9.72393 15.9072C13.172 15.8334 16.7669 13.0301 20.1416 16.2761C20.2884 16.4236 21.3155 15.5383 22.0491 15.3908C26.671 14.6531 31.293 15.981 35.8416 15.1695C35.9883 15.1695 36.2817 15.5383 36.4285 15.5383C40.6102 15.1695 44.792 15.1695 48.9737 15.5383C49.0471 15.5383 49.1938 15.3908 49.2672 15.317C53.5957 14.5055 58.0709 16.4236 62.3994 14.8744C62.5461 14.8006 62.8396 15.0219 63.0596 15.1695C63.5732 15.5383 64.1601 15.9072 63.94 16.6449C63.6466 17.6777 62.8396 17.4564 62.1793 17.0876C60.8587 16.3498 59.905 16.7925 58.8045 17.604C57.7041 18.4892 56.1634 19.1532 55.063 18.2679C51.9083 15.6121 49.5607 17.604 46.8462 19.227C51.4681 20.4073 55.87 21.8828 59.2447 25.2763C62.8396 28.8912 63.3531 33.3175 61.8858 38.4079C68.3419 34.129 71.1297 26.0878 68.4152 20.7024L68.562 20.85C69.0755 19.0794 68.0484 17.7515 67.2414 16.4236C63.4998 10.3005 57.7774 6.46429 50.6611 4.61998ZM2.53423 34.6455C1.21367 44.1621 2.90106 51.9082 10.4576 57.7363C24.25 68.3596 48.827 68.1382 62.326 57.1461C69.5157 51.3181 70.8362 43.7195 69.5157 34.8668C54.476 54.8592 16.9136 54.269 2.53423 34.6455ZM39.2897 20.85C37.749 20.9975 35.1813 21.1451 32.6869 21.6615C25.5706 23.2107 18.8211 25.719 13.6856 31.2519C9.57719 35.6783 10.751 39.7358 16.6202 41.285C20.5818 42.3916 24.6169 41.9489 28.5052 40.621C32.7603 39.1456 36.8686 39.2931 41.0504 40.9899C44.4252 42.3178 47.9466 42.6867 51.4681 42.244C56.4569 41.6539 59.9784 38.8505 60.7854 35.1619C61.5924 31.3995 59.5382 27.342 55.3564 24.7599C50.7345 21.8828 45.6724 20.9975 39.2897 20.85ZM50.2209 45.3425C40.3168 42.6867 30.7061 40.1784 20.8019 45.0474C30.7061 48.2196 40.3168 48.5147 50.2209 45.3425Z" fill="#007B9B"/>
<path d="M55.7019 13.9999C55.1159 13.8552 54.237 13.8552 53.7975 13.4208C51.9664 11.8283 50.355 13.2037 48.6703 13.2761C44.4221 13.4208 40.0273 13.4208 35.7791 13.2761C34.0212 13.2037 32.483 13.0589 30.6519 13.2037C26.3304 13.4932 21.8624 13.4208 17.4676 13.2761C16.2225 13.2037 15.1238 11.6111 13.5124 12.6246C12.9997 12.9141 12.2672 12.8417 12.0475 12.1178C11.8277 11.394 12.4137 10.9596 12.9264 10.6701C13.3659 10.4529 14.0251 10.0186 14.2448 10.1634C18.4931 13.0589 23.547 8.42604 27.722 11.4663C28.2348 11.8283 28.894 11.9007 29.4799 11.5387C31.897 9.65664 34.3142 9.51186 36.8045 11.4663C37.4637 11.9731 38.2694 11.8283 38.8554 11.3216C41.2725 9.51186 43.5431 9.58425 45.887 11.394C46.0335 11.5387 46.3997 11.6835 46.5462 11.6111C49.8422 9.51186 52.9918 10.0186 56.3611 11.5387C57.0936 11.9007 58.7782 10.2357 58.998 11.8283C59.0712 13.5656 57.1668 13.7828 55.7019 13.9999Z" fill="#007B9B"/>
<path d="M35.8792 23.9736C33.3002 23.7209 31.2682 21.7622 28.2203 22.5836C27.7514 22.7099 28.064 21.0039 28.8455 21.0671C33.5346 21.1935 38.1456 21.2567 42.8347 21.0039C43.4599 20.9408 44.2414 21.6358 43.9288 22.394C43.5381 23.2154 42.7566 22.9627 42.0532 22.6467C39.4742 21.6358 38.1456 24.2896 35.8792 23.9736Z" fill="#007B9B"/>
<path d="M40.9249 21.0939C40.2486 23.8733 38.4452 24.7072 35.6649 23.3869C34.3124 22.7615 33.1853 21.8582 31.5321 22.6921C30.931 22.97 30.2547 22.9005 30.0293 22.1362C29.879 21.4413 30.3299 21.0939 30.8559 20.7465C32.1333 19.9821 33.6361 19.6347 34.6881 20.538C36.7169 22.2751 38.8209 21.5108 41 21.1634L40.9249 21.0939Z" fill="#007B9B"/>
<path d="M35.7645 29.9999C35.3341 29.7938 34.6168 29.5877 33.9713 29.1754C33.3258 28.7631 32.7519 27.9386 33.1106 26.8048C33.3975 25.9803 34.043 25.9803 34.6168 26.2895C35.1906 26.5987 35.6927 26.8048 36.2665 26.9079C37.199 27.114 38.777 24.4342 38.9922 27.4232C39.1357 29.3815 37.2708 29.7938 35.7645 29.9999Z" fill="#007B9B"/>
<path d="M35.5325 25.9999C36.4231 26.2084 37.3948 26.3647 38.1235 26.6773C38.7712 26.9378 39.4999 27.7193 38.5283 27.8236C36.5851 28.0841 34.399 28.032 32.4558 27.8236C31.5651 27.7193 32.1319 26.8857 32.8606 26.6252C33.6703 26.3126 34.6419 26.2084 35.5325 25.9999Z" fill="#007B9B"/>
<path d="M36.715 38.9999C32.854 38.9999 29.6613 37.7482 27.7308 34.4797C26.617 32.602 26.7655 30.6548 28.2505 28.9162C30.775 25.9259 34.339 25.6477 37.9773 26.2736C42.358 26.969 45.4023 30.2376 44.9568 33.5756C44.5113 36.8441 41.2443 38.9999 36.715 38.9999ZM35.3043 27.9426C32.0373 28.0122 29.3643 29.8203 29.29 32.0457C29.2158 34.6883 33.151 37.1918 37.012 37.0527C40.3533 36.9137 42.8778 35.1055 42.8035 32.8106C42.655 30.2376 39.091 27.8731 35.3043 27.9426Z" fill="#007B9B"/>
</svg>
