<svg width="63" height="63" viewBox="0 0 63 63" fill="none" xmlns="http://www.w3.org/2000/svg">
<path d="M24.2032 9.45332L2.15392 58.2347C1.39805 59.9069 3.1052 61.6292 4.78407 60.8881L28.0403 50.6219M24.2032 9.45332C24.5968 7.94956 26.5645 5.09897 31.2871 5.72663M24.2032 9.45332C24.6577 15.493 28.0152 21.1089 32.115 25.7331M31.2871 5.72663C37.1903 6.51119 53.3258 17.6913 57.2613 31.0289C57.4043 31.5134 57.5205 31.9707 57.6115 32.4019M31.2871 5.72663L58.4823 2.31571C59.7658 2.15473 60.8622 3.23612 60.7189 4.52171L57.6115 32.4019M56.0806 38.2439C53.4525 39.7011 48.5084 38.1208 45.2581 36.5208C41.8207 34.5533 36.5363 30.7199 32.115 25.7331M56.0806 38.2439L28.0403 50.6219M56.0806 38.2439C57.5534 37.4274 58.2988 35.6571 57.6115 32.4019M28.0403 50.6219C30.068 46.1177 33.7218 34.834 32.115 25.7331M43.9095 20.4051C40.894 17.0525 36.7164 14.5762 33.8078 13.2171C32.5849 12.6457 31.319 13.5867 31.719 14.8759C34.6038 24.174 50.9645 33.8327 50.9645 32.4019C50.9645 30.8327 49.0256 26.0932 43.9095 20.4051Z" stroke="#007A9B" stroke-width="3"/>
</svg>
