<svg width="76" height="76" viewBox="0 0 76 76" fill="none" xmlns="http://www.w3.org/2000/svg">
<path d="M74.7333 62.0666H69.6667V37.9999C69.6667 37.6639 69.5332 37.3417 69.2957 37.1042C69.0581 36.8666 68.7359 36.7332 68.4 36.7332H54.4667V12.6664C54.4667 12.3305 54.3332 12.0083 54.0957 11.7708C53.8581 11.5332 53.5359 11.3998 53.2 11.3998H40.28C40.7507 10.1862 40.8704 8.86468 40.6253 7.58631C40.3802 6.30794 39.7804 5.12434 38.8943 4.17088L35.0943 0.370864C34.8567 0.1334 34.5346 0 34.1987 0C33.8629 0 33.5407 0.1334 33.3032 0.370864C32.1186 1.64754 31.4603 3.3248 31.4603 5.06641C31.4603 6.80803 32.1186 8.48529 33.3032 9.76196L34.9435 11.3998H25.3333C24.9974 11.3998 24.6752 11.5332 24.4377 11.7708C24.2001 12.0083 24.0667 12.3305 24.0667 12.6664V36.7332H12.6667C12.3307 36.7332 12.0085 36.8666 11.771 37.1042C11.5335 37.3417 11.4 37.6639 11.4 37.9999V62.0666H1.26667C0.930726 62.0666 0.608544 62.2001 0.370998 62.4376C0.133452 62.6752 0 62.9973 0 63.3333V68.4C0 68.7359 0.133452 69.0581 0.370998 69.2956C0.608544 69.5332 0.930726 69.6666 1.26667 69.6666H8.40687L15.6547 75.7074C15.8831 75.8964 16.1702 75.9999 16.4667 76H59.5333C59.8298 75.9999 60.1169 75.8964 60.3453 75.7074L67.5931 69.6666H74.7333C75.0693 69.6666 75.3915 69.5332 75.629 69.2956C75.8665 69.0581 76 68.7359 76 68.4V63.3333C76 62.9973 75.8665 62.6752 75.629 62.4376C75.3915 62.2001 75.0693 62.0666 74.7333 62.0666ZM34.3659 3.22467L37.1045 5.96195C37.6767 6.59541 38.0508 7.38258 38.1807 8.22627C38.3106 9.06995 38.1905 9.93321 37.8353 10.7094L35.0955 7.97089C34.5235 7.33757 34.1496 6.55055 34.0199 5.70705C33.8903 4.86356 34.0105 4.00056 34.3659 3.22467ZM67.1333 62.0666H41.8V39.2665H67.1333V62.0666ZM26.6 13.9331H51.9333V36.7332H26.6V13.9331ZM13.9333 39.2665H39.2667V62.0666H13.9333V39.2665ZM59.0748 73.4667H16.9252L12.3652 69.6666H63.6348L59.0748 73.4667ZM73.4667 67.1333H2.53333V64.6H73.4667V67.1333Z" fill="#007A9B"/>
<path d="M33.9174 21.3553C32.9179 21.3553 31.9593 21.7524 31.2526 22.4591C30.5458 23.1659 30.1488 24.1244 30.1488 25.1239H32.6612C32.6612 24.7908 32.7935 24.4713 33.0291 24.2357C33.2647 24.0001 33.5842 23.8677 33.9174 23.8677C34.2505 23.8677 34.57 24.0001 34.8056 24.2357C35.0412 24.4713 35.1736 24.7908 35.1736 25.1239H37.686C37.686 24.1244 37.2889 23.1659 36.5822 22.4591C35.8754 21.7524 34.9169 21.3553 33.9174 21.3553Z" fill="#007A9B"/>
<path d="M46.4794 47.1075C46.4794 47.8528 46.7188 48.5814 47.1674 49.2012C47.616 49.8209 48.2537 50.304 48.9997 50.5892C49.7457 50.8744 50.5665 50.9491 51.3585 50.8036C52.1505 50.6582 52.8779 50.2993 53.4489 49.7723C54.0199 49.2452 54.4087 48.5737 54.5662 47.8427C54.7237 47.1116 54.6429 46.3539 54.3339 45.6653C54.0249 44.9767 53.5016 44.3881 52.8302 43.974C52.1588 43.5599 51.3695 43.3389 50.562 43.3389C49.4792 43.3389 48.4408 43.7359 47.6752 44.4427C46.9095 45.1494 46.4794 46.108 46.4794 47.1075ZM51.9229 47.1075C51.9229 47.3559 51.8431 47.5988 51.6936 47.8054C51.544 48.0119 51.3315 48.173 51.0828 48.268C50.8341 48.3631 50.5605 48.388 50.2965 48.3395C50.0325 48.2911 49.7901 48.1714 49.5997 47.9957C49.4094 47.82 49.2798 47.5962 49.2273 47.3525C49.1748 47.1089 49.2017 46.8563 49.3047 46.6267C49.4077 46.3972 49.5822 46.201 49.806 46.063C50.0298 45.9249 50.2929 45.8513 50.562 45.8513C50.9229 45.8513 51.2691 45.9836 51.5243 46.2192C51.7795 46.4548 51.9229 46.7743 51.9229 47.1075Z" fill="#007A9B"/>
<path d="M60.9256 57.1571C61.2588 57.1571 61.5783 57.2894 61.8139 57.525C62.0495 57.7606 62.1818 58.0801 62.1818 58.4132H64.6942C64.6942 57.4138 64.2972 56.4552 63.5904 55.7485C62.8837 55.0417 61.9251 54.6447 60.9256 54.6447C59.9261 54.6447 58.9676 55.0417 58.2608 55.7485C57.5541 56.4552 57.157 57.4138 57.157 58.4132H59.6694C59.6694 58.0801 59.8018 57.7606 60.0374 57.525C60.2729 57.2894 60.5925 57.1571 60.9256 57.1571Z" fill="#007A9B"/>
<path d="M28.8925 47.9449C28.5594 47.9449 28.2399 47.7905 28.0043 47.5157C27.7687 47.2408 27.6363 46.8681 27.6363 46.4794H25.124C25.124 47.6454 25.521 48.7638 26.2277 49.5883C26.9345 50.4128 27.8931 50.8761 28.8925 50.8761C29.892 50.8761 30.8506 50.4128 31.5573 49.5883C32.2641 48.7638 32.6611 47.6454 32.6611 46.4794H30.1487C30.1487 46.8681 30.0164 47.2408 29.7808 47.5157C29.5452 47.7905 29.2257 47.9449 28.8925 47.9449Z" fill="#007A9B"/>
<path d="M47.1075 24.4959H49.6199V17.6914C49.6199 17.3305 49.4875 16.9844 49.2519 16.7292C49.0164 16.4739 48.6968 16.3306 48.3637 16.3306H43.3389V19.0523H47.1075V24.4959Z" fill="#007A9B"/>
<path d="M19.0524 50.876H16.3306V58.4132C16.3306 58.7463 16.474 59.0659 16.7292 59.3014C16.9844 59.537 17.3306 59.6694 17.6915 59.6694H24.4959V57.157H19.0524V50.876Z" fill="#007A9B"/>
<path d="M26.3801 56.5289H31.4049V59.6694H26.3801V56.5289Z" fill="#007A9B"/>
<path d="M39.5702 29.5206H44.595V31.4049H39.5702V29.5206Z" fill="#007A9B"/>
<path d="M19.4711 43.3389H24.4959V45.8513H19.4711V43.3389Z" fill="#007A9B"/>
<path d="M58.4132 44.595H63.438V46.4793H58.4132V44.595Z" fill="#007A9B"/>
<path d="M44.5951 53.3884H49.6199V55.9008H44.5951V53.3884Z" fill="#007A9B"/>
</svg>
