<svg width="89" height="62" viewBox="0 0 89 62" fill="none" xmlns="http://www.w3.org/2000/svg">
<g clip-path="url(#clip0)">
<path d="M19.1341 23.217C16.0621 23.1291 12.639 20.7546 10.0059 23.4809C7.46055 26.1192 10.7081 28.8454 10.9714 31.5716C11.1469 33.9461 13.9556 37.4638 11.6736 38.1674C9.21597 38.8709 9.47929 34.5617 8.60157 32.4511C7.81163 30.6043 7.37278 28.5816 6.75838 26.5589C5.79289 23.217 7.8994 20.139 11.3225 19.7872C11.9369 19.6993 12.4635 19.6993 13.0779 19.8752C19.2219 21.0185 25.1026 21.2823 29.4911 15.3901C30.3688 14.1589 32.4753 13.7192 34.143 13.1915C36.9517 12.3121 40.1992 12.3121 40.6381 8.09079C40.8136 6.6837 42.4813 6.41987 43.8856 6.50781C45.3777 6.59576 46.6065 7.47519 46.6065 8.88228C46.6943 11.6085 48.3619 12.1362 50.5562 12.5759C55.1203 13.4553 58.9822 15.6539 61.8787 19.4355C64.2485 22.5135 66.9694 24.0085 71.2702 22.3376C78.2919 19.6993 84.787 21.4582 87.5079 25.9433C90.3166 30.6922 89.1755 37.8156 83.3826 42.4766C77.3264 47.3135 71.2702 51.9745 65.8284 57.6029C62.7564 60.7688 58.1923 61.9121 53.716 61.9121C46.8698 62 40.0237 62 33.0897 61.9121C29.2278 61.9121 25.6292 60.5929 22.3817 58.5702C21.5917 58.0426 20.3629 57.427 21.0651 56.1958C21.5917 55.3163 22.5572 55.7561 23.4349 56.1958C34.3185 62 46.0799 59.6255 57.4024 58.6582C64.8629 58.0426 69.8659 52.4142 71.7968 44.939C73.64 37.9036 71.7091 31.6596 66.4428 26.4709C64.073 24.0965 61.3521 22.8653 57.8412 22.9532C48.9763 23.1291 40.0237 23.305 31.071 22.9532C26.068 22.7773 22.2061 24.0965 19.1341 27.966C18.4319 28.8454 17.642 30.3404 16.4132 29.1972C15.1844 28.0539 16.7643 27.1745 17.2909 26.2951C17.8176 25.2397 19.1341 24.8 19.1341 23.217ZM76.8876 23.7447C76.0098 23.8326 74.6933 23.9206 73.3767 24.1844C70.6558 24.7121 69.1637 25.5915 71.4458 28.6695C74.3422 32.539 75.2199 37.1121 74.8688 41.949C74.6055 44.6752 75.2199 45.6426 77.853 43.8837C80.8373 41.949 83.2949 39.4865 84.9625 36.4085C88.6489 29.461 85.0503 23.6568 76.8876 23.7447ZM28.1745 20.227C38.6193 20.227 48.4497 20.227 58.4556 20.227C52.3116 12.4 35.6351 12.2241 28.1745 20.227Z" fill="#007A9B"/>
<path d="M10.2697 41.6851C10.7085 41.6851 11.2351 41.5092 11.5862 41.6851C14.3071 42.9163 19.2223 38.6071 19.9245 44.6752C20.9777 53.4695 17.9057 58.834 11.7618 59.8894C6.93435 60.6808 2.1947 57.4269 0.878137 52.4142C0.790365 51.9745 0.614823 51.5347 0.614823 51.183C-0.789516 42.1248 -0.350661 41.6851 10.2697 41.6851ZM10.4452 44.1475C3.07242 44.1475 3.07242 44.1475 3.07242 48.1929C2.98465 53.7333 5.88109 57.4269 10.2697 57.4269C14.6582 57.4269 17.3791 53.8213 17.5547 48.2808C17.7302 41.6851 12.7272 45.1149 10.4452 44.1475Z" fill="#007A9B"/>
<path d="M9.47929 4.92482C9.21598 8.97021 5.88067 12.3121 7.98718 16.4454C8.16272 16.8851 7.81164 17.6766 7.10947 17.5886C6.58284 17.5007 6.05621 17.1489 5.7929 16.7092C4.21302 14.1589 4.38856 11.4326 5.70513 8.88227C6.67061 7.03546 7.46055 5.18865 6.67061 3.07801C6.31953 2.02269 5.26627 0.6156 6.84615 0.0879402C8.60158 -0.439719 8.77712 1.40709 9.04043 2.55035C9.30375 3.42978 9.39152 4.30922 9.47929 4.92482Z" fill="#007A9B"/>
<path d="M31.8609 56.2837C27.4724 55.844 22.5572 51.4468 21.5039 47.3135C21.3284 46.434 20.9773 45.3787 21.855 44.939C23.1716 44.3234 23.6105 45.4667 23.9615 46.434C25.3659 50.4794 28.0868 53.0298 32.3876 53.7333C33.3531 53.9092 34.6696 53.9092 34.4063 55.4042C34.143 56.7234 32.8264 56.3716 31.8609 56.2837Z" fill="#007A9B"/>
<path d="M0.438843 9.9376C1.05324 7.73902 2.45758 5.54044 1.57987 2.90214C1.4921 2.63831 1.93095 2.11065 2.28204 1.93476C2.89644 1.58299 3.33529 2.11065 3.68638 2.63831C4.65186 4.0454 4.65186 5.62838 4.213 7.21136C3.86192 8.35462 3.51084 9.40994 3.24752 10.5532C3.07198 11.6965 4.47632 13.7192 2.54535 13.8071C0.702157 13.895 0.702156 11.6085 0.438843 9.9376Z" fill="#007A9B"/>
</g>
<defs>
<clipPath id="clip0">
<rect width="89" height="62" fill="white"/>
</clipPath>
</defs>
</svg>
