<svg width="70" height="65" viewBox="0 0 70 65" fill="none" xmlns="http://www.w3.org/2000/svg">
<path d="M30.6615 6.13037C33.2996 6.36026 35.9377 6.66677 38.4982 6.89666C47.8091 7.58633 57.0424 8.35262 66.3532 8.96566C68.681 9.11892 70.3104 9.42544 69.9224 12.414C69.4569 15.4025 67.5171 14.483 65.8101 14.3297C55.1802 13.2569 44.4727 12.1841 33.8427 10.8814C30.6615 10.4983 29.6528 11.4944 29.8856 14.483C30.1184 17.5482 30.1184 20.6134 29.8856 23.6785C29.6528 26.8204 30.7391 27.8932 33.9979 27.8165C44.2399 27.6633 54.4043 27.8932 64.6462 27.6633C68.2154 27.5867 69.0689 28.7361 68.6034 32.1078C66.974 44.1386 60.9995 53.0277 50.292 58.8515C49.2057 59.4646 47.5763 59.7711 47.7315 61.3803C48.0418 65.0585 45.7141 65.0585 42.9984 64.9819C36.7912 64.9053 30.5839 64.9819 24.3767 64.9053C22.98 64.9053 21.1179 65.1351 21.273 63.0662C21.5058 60.3075 19.6437 59.4646 17.7039 58.3151C7.30673 52.4913 1.6426 43.449 0.0907892 31.8779C-0.297164 28.8127 0.478743 27.51 3.97032 27.5867C11.7294 27.6633 11.5742 27.51 11.7294 20.077C11.807 14.6362 11.4966 9.27218 10.6431 3.90811C10.2552 1.53259 11.1087 0.766296 13.514 0.766296C31.1271 0.613037 48.6626 0.306518 66.2756 0C68.4482 0 70 0.0766293 70 2.91192C69.9224 5.82385 68.0602 5.36407 66.2756 5.36407C55.6457 5.21081 45.0934 5.05755 34.4635 4.98092C33.2996 4.98092 31.9806 4.59777 30.6615 6.13037ZM34.5411 29.9622C24.8422 29.9622 15.1434 30.0388 5.52214 29.8855C2.88405 29.8855 2.26333 30.5752 2.65128 33.2572C3.58237 39.2343 5.8325 44.5218 9.78962 49.1196C14.9882 55.1733 21.1179 59.3879 29.808 58.4684C34.3859 58.0086 39.1189 58.3917 43.7743 58.3917C45.0934 58.3917 46.3348 58.3917 47.5763 57.7787C58.1286 52.7978 64.3359 44.5984 66.2756 33.1806C66.7412 30.6518 65.8877 29.8089 63.2496 29.8855C53.6284 30.0388 44.0847 29.9622 34.5411 29.9622ZM34.0755 62.9129C34.0755 62.9129 34.0755 62.8363 34.0755 62.9129C37.1791 62.9129 40.2052 62.9129 43.3088 62.9129C44.0847 62.9129 45.0158 62.7596 45.0158 61.7634C45.0158 60.7673 44.1623 60.614 43.3864 60.614C37.4895 60.614 31.5926 60.614 25.6957 60.614C24.8422 60.614 23.756 60.614 23.9111 61.9167C23.9887 62.9129 24.9198 62.9129 25.6957 62.9129C28.4114 62.9129 31.2822 62.9129 34.0755 62.9129ZM15.3762 9.50207C13.3588 13.7167 13.6692 25.2878 15.3762 27.3568C15.3762 21.303 15.3762 15.4025 15.3762 9.50207ZM18.4022 27.0502C18.635 27.0502 18.9453 27.0502 19.1781 27.1269C19.1781 21.3797 19.1781 15.7091 19.1781 9.96185C18.9453 9.96185 18.635 9.96185 18.4022 9.96185C18.4022 15.7091 18.4022 21.3797 18.4022 27.0502ZM23.368 10.4216C23.0576 10.4216 22.8249 10.4216 22.5145 10.345C22.5145 15.939 22.5145 21.5329 22.5145 27.1269C22.8249 27.1269 23.0576 27.1269 23.368 27.1269C23.368 21.6095 23.368 16.0156 23.368 10.4216ZM26.4716 10.6515C26.4716 16.1688 26.4716 21.6862 26.4716 27.2035C26.782 27.2035 27.1699 27.2035 27.4803 27.2035C27.9458 21.6862 28.101 16.1688 26.4716 10.6515Z" fill="#007B9B"/>
</svg>
